<mxfile host="app.diagrams.net" agent="Mozilla/5.0 (Windows NT 10.0; Win64; x64) AppleWebKit/537.36 (KHTML, like Gecko) Chrome/138.0.0.0 Safari/537.36 Edg/138.0.0.0" version="28.0.6">
  <diagram name="第 1 页" id="OxzYYCeSE4kF8Ay5W1zQ">
    <mxGraphModel dx="1205" dy="666" grid="1" gridSize="10" guides="1" tooltips="1" connect="1" arrows="1" fold="1" page="1" pageScale="1" pageWidth="827" pageHeight="1169" math="0" shadow="0">
      <root>
        <mxCell id="0" />
        <mxCell id="1" parent="0" />
        <mxCell id="CGyTaIqXadppFpSv9QEg-7" style="edgeStyle=orthogonalEdgeStyle;rounded=0;orthogonalLoop=1;jettySize=auto;html=1;exitX=1;exitY=0.5;exitDx=0;exitDy=0;" parent="1" source="CGyTaIqXadppFpSv9QEg-1" target="CGyTaIqXadppFpSv9QEg-4" edge="1">
          <mxGeometry relative="1" as="geometry" />
        </mxCell>
        <mxCell id="CGyTaIqXadppFpSv9QEg-1" value="&lt;font face=&quot;Times New Roman&quot;&gt;TRIZ&lt;/font&gt;&lt;div&gt;一般問題&lt;/div&gt;" style="rounded=1;whiteSpace=wrap;html=1;fontFamily=標楷體;labelBackgroundColor=none;" parent="1" vertex="1">
          <mxGeometry x="170" y="170" width="120" height="60" as="geometry" />
        </mxCell>
        <mxCell id="CGyTaIqXadppFpSv9QEg-6" style="edgeStyle=orthogonalEdgeStyle;rounded=0;orthogonalLoop=1;jettySize=auto;html=1;exitX=0.5;exitY=0;exitDx=0;exitDy=0;entryX=0.5;entryY=1;entryDx=0;entryDy=0;" parent="1" source="CGyTaIqXadppFpSv9QEg-2" target="CGyTaIqXadppFpSv9QEg-1" edge="1">
          <mxGeometry relative="1" as="geometry" />
        </mxCell>
        <mxCell id="CGyTaIqXadppFpSv9QEg-2" value="特定問題" style="rounded=1;whiteSpace=wrap;html=1;fontFamily=標楷體;" parent="1" vertex="1">
          <mxGeometry x="170" y="290" width="120" height="60" as="geometry" />
        </mxCell>
        <mxCell id="CGyTaIqXadppFpSv9QEg-3" value="特定解" style="rounded=1;whiteSpace=wrap;html=1;fontFamily=標楷體;" parent="1" vertex="1">
          <mxGeometry x="400" y="290" width="120" height="60" as="geometry" />
        </mxCell>
        <mxCell id="CGyTaIqXadppFpSv9QEg-8" style="edgeStyle=orthogonalEdgeStyle;rounded=0;orthogonalLoop=1;jettySize=auto;html=1;exitX=0.5;exitY=1;exitDx=0;exitDy=0;entryX=0.5;entryY=0;entryDx=0;entryDy=0;" parent="1" source="CGyTaIqXadppFpSv9QEg-4" target="CGyTaIqXadppFpSv9QEg-3" edge="1">
          <mxGeometry relative="1" as="geometry" />
        </mxCell>
        <mxCell id="CGyTaIqXadppFpSv9QEg-4" value="&lt;font face=&quot;Times New Roman&quot;&gt;TRIZ&lt;/font&gt;&lt;div&gt;一般解&lt;/div&gt;" style="rounded=1;whiteSpace=wrap;html=1;fontFamily=標楷體;" parent="1" vertex="1">
          <mxGeometry x="400" y="170" width="120" height="60" as="geometry" />
        </mxCell>
      </root>
    </mxGraphModel>
  </diagram>
</mxfile>
